<?xml version="1.0" encoding="utf-8"?>
<!-- Svg Vector Icons : http://www.onlinewebfonts.com/icon -->
<!DOCTYPE svg PUBLIC "-//W3C//DTD SVG 1.1//EN" "http://www.w3.org/Graphics/SVG/1.1/DTD/svg11.dtd">
<svg version="1.1" xmlns="http://www.w3.org/2000/svg" xmlns:xlink="http://www.w3.org/1999/xlink" x="0px" y="0px" viewBox="0 0 1000 1000" enable-background="new 0 0 1000 1000" xml:space="preserve">
<metadata> Svg Vector Icons : http://www.onlinewebfonts.com/icon </metadata>
<g><g transform="translate(0.000000,511.000000) scale(0.100000,-0.100000)"><path fill="#666666" d="M2213,2963.3c-335.4-64.7-604.1-161.7-868.8-311.2c-624.4-351.6-1083-975.9-1212.3-1644.7c-42.4-218.2-42.4-636.5,0-874.9c95-533.4,327.3-957.7,749.6-1363.9c258.6-248.5,448.6-369.7,786-493c30.3-12.1-30.3-40.4-242.5-113.2c-361.7-127.3-590-240.4-705.2-353.6c-115.2-111.1-121.2-167.7-26.3-240.4c165.7-127.3,606.2-216.2,1412.4-286.9c499.1-42.4,2232.7-62.6,2834.8-30.3c1105.2,58.6,2113.5,204.1,2412.5,349.5c204.1,99,531.4,430.4,642.5,652.6c22.2,44.5,84.9,204.1,135.4,353.6c224.3,644.6,434.4,911.3,986,1252.7c394,244.5,499.1,345.5,563.7,535.4c88.9,274.8,48.5,567.8-113.1,812.3c-38.4,58.6-70.7,113.1-70.7,121.2c2,46.5,208.1,339.4,260.6,371.8c129.3,78.8,177.8,240.4,115.2,390c-42.4,103.1-121.2,153.6-238.4,153.6c-86.9,0-111.1-10.1-167.7-66.7c-38.4-38.4-74.8-95-82.8-127.3c-16.2-64.6-246.5-432.4-270.8-432.4c-8.1,0-64.6,22.2-123.2,46.5c-60.6,26.3-129.3,56.6-155.6,66.7c-44.5,18.2-42.4,22.2,72.7,194c64.7,97,149.5,198,187.9,224.3c183.9,123.3,165.7,402.1-34.3,499.1c-56.6,28.3-101,36.4-147.5,28.3c-84.8-18.2-187.9-119.2-216.2-212.2c-12.1-40.4-107.1-204.1-212.2-365.7l-189.9-295l-159.6-24.2c-377.8-54.6-646.6-177.8-893-408.2c-200-187.9-733.5-933.5-1038.6-1450.7C6120.7-219,6050-336.2,6045.9-342.3c-14.2-18.2-42.4,52.5-137.4,331.4C5540.8,1084.2,5072,1856,4476,2343c-365.7,299-697.1,466.7-1149.7,581.9c-173.8,42.4-260.6,50.5-588,58.6C2469.6,2987.5,2312,2981.5,2213,2963.3z M3112.1,2660.2c701.1-149.5,1466.9-739.5,1887.2-1452.8c137.4-234.4,408.2-761.7,464.7-903.2c78.8-202.1,339.5-1093.1,325.3-1107.3c-12.1-12.1-1828.6-204.1-1828.6-192c0,2,28.3,44.5,62.6,95c95,141.4,212.2,408.2,262.7,598.1c40.4,145.5,46.5,222.3,48.5,505.1c0,286.9-6.1,357.6-46.5,505.1c-200,729.4-747.6,1275-1477,1468.9c-167.7,44.4-236.4,52.5-497,52.5c-262.7,0-329.3-6.1-503.1-52.5c-489-129.3-913.3-430.4-1188.1-842.6c-54.6-82.8-105.1-155.6-109.1-159.6c-6.1-6.1,18.2,52.5,48.5,131.3c286.9,689,982,1214.3,1784.1,1349.7C2568.6,2692.5,2946.4,2694.6,3112.1,2660.2z M2748.4,1807.5c547.6-139.4,955.7-539.5,1115.3-1091.1c40.4-135.4,46.5-206.1,46.5-472.8c0-367.7-24.3-476.8-165.7-767.8c-80.8-161.6-123.2-220.2-276.8-375.8c-155.6-153.6-214.2-198-375.8-276.8c-280.9-139.4-458.7-179.8-777.9-179.8c-319.2,0-497.1,40.4-777.9,179.8c-161.6,78.8-220.2,123.2-375.8,276.8c-153.5,155.6-196,214.2-276.8,375.8C742-233.2,717.8-124.1,717.8,243.7c0,357.6,24.2,476.8,149.5,737.5c220.2,460.7,600.1,747.6,1123.4,850.6C2170.5,1866.1,2568.6,1854,2748.4,1807.5z"/><path d="M2112,1395.4c-808.2-161.6-1192.1-1083-737.5-1763.9C1590.7-691.8,1922-869.6,2316-871.7c323.3-2,575.9,103.1,808.2,335.4c311.2,311.1,416.2,737.5,282.9,1153.7C3235.4,1156.9,2657.5,1504.5,2112,1395.4z M2671.6,956.9c72.7-34.3,165.7-97,208.1-139.4c280.8-286.9,268.7-850.6-22.2-1119.4c-113.1-103-220.2-153.5-396-181.8c-367.7-58.6-697.1,103.1-836.5,412.2c-50.5,109.1-56.6,145.5-56.6,335.4c0,173.8,8.1,234.4,46.5,329.3c48.5,125.3,192,288.9,301.1,345.5C2132.2,1049.8,2455.4,1057.9,2671.6,956.9z"/><path d="M2152.4,629.6C2021,571,1920,419.4,1920,284.1c0-194,189.9-383.9,383.9-383.9c90.9,0,218.2,60.6,286.9,133.4c175.8,189.9,111.1,482.9-135.4,596.1C2352.4,678.1,2255.4,678.1,2152.4,629.6z"/></g></g>
</svg>